<?xml version="1.0" encoding="UTF-8"?>
<svg id="Layer_1" xmlns="http://www.w3.org/2000/svg" version="1.1" viewBox="0 0 805.06 827.01">
  <!-- Generator: Adobe Illustrator 30.6.0, SVG Export Plug-In . SVG Version: 2.1.4 Build 109)  -->
  <defs>
    <style>
      .st0 {
        fill: #fff;
      }
    </style>
  </defs>
  <g>
    <polygon class="st0" points="238.13 722.71 242.7 708.79 267.86 625.05 286.77 554.97 288.93 547.5 293.85 529.95 296.22 521.33 301.25 503.35 305.79 486.95 317.02 449.22 324.3 424.15 328.4 412.51 341.3 369.28 346.8 351.79 350.27 340.42 355.6 323.66 366.91 287.09 370.85 274.56 378.41 251.61 384.51 232.6 392.02 239.52 385.91 260.94 382.5 275.79 378.68 290.01 375 305.04 369.77 325.84 365.69 342.99 362 358.28 353.71 393 344.9 428.21 330.9 482.16 322.17 515.28 313.57 548.77 308.78 568.27 291.6 638.77 283.12 672.23 271.03 721.84 253.18 722.38 238.13 722.71"/>
    <path class="st0" d="M428.37,614.66l.39,31.56.23,17.26.89,58.85-41.94.09,3.76-54.34.17-10.59,3.18-32.2.88-17.02,1.88-28.97,2.29-25.01,1.18-14.93,4.48-56.32,1.77-22.79,1.16-12.71,2.05-24.48,3.53-29.61,3.42-35.27,6.63-66.85c.25-2.48-.19-3.68,1.68-5.24l-.55,13.06.1,31.64-.07,9.28.23,20.11.35,31.09.33,11.35.21,28.9.23,17.64-.3,7.84.45,6.67c-.41,2.53-.09,5.08.08,8.06l.35,6.31-.07,10.04.07,12.97-.05,8.39-.07,15.69.03,13.08.4,42.1.64,34.36Z"/>
    <path class="st0" d="M320.83,654.74l-13.17,67.24-28.81.6,3.89-17.69,11.61-49.7,11.44-52.46,3.23-13.67,15.77-61.05,8.26-31.69,3.71-16.4,15.64-58.24,12.3-48.83,6.31-26.69,2.68-11.64,2.75-12.1,5.14-21.91,4.42-18.28,9.93-37.61,6.96,8.25c-5.32,18.46-9,36.1-12.36,54.72l-3.37,18.72-3.51,17.2-4.45,21.09-2.53,15.55-9.41,45.08-5.31,25.06-4.1,21.79-8.8,44.99-5.76,30.68-4.11,18.03-1.83,8.62-3.54,18.58-3.06,15.47-3.7,17.49-6.21,28.8Z"/>
    <polygon class="st0" points="348.91 692.69 344.55 722.11 329.16 722.21 314.67 722.31 323.62 675.73 326.77 659.99 334.51 617.68 341.67 582.39 349.01 547.92 354.92 518.2 360.26 488.48 365.98 458.89 374.58 414.56 376.42 406.5 382.77 375.85 387.37 352.83 391.45 330.81 395.44 309.81 398.65 292.01 404.1 268.71 407.14 257.71 412.27 263.55 407.39 296.24 406.13 305.18 402.79 325.7 400.69 343.43 399.8 348.95 391.57 402.35 389.19 419.63 380.26 474.39 377.88 489.69 374.43 513.11 370.3 541.67 368.11 560.14 366.44 571.04 364.1 588.27 361.57 605.33 359 626.81 356.56 643.42 354.93 654.68 348.91 692.69"/>
    <path class="st0" d="M381.74,714.14l-1.04,8-28.54.28.89-10.33,4.1-29.92,9.63-69.79,2.67-22.64,1.66-16.3,2.79-21.17,2.7-16.1,1.92-13.2,7.88-51.67,2.72-17.16,1.27-7.93,10.57-71.27,4.79-32.15,2.06-15.26,4.38-30.26,4.26-27.08c2.08,2.27,5.25,6.78,4.91,9.82l-1.99,17.66-2.61,22.09-3.57,32.54-4.51,44.65-2.15,18.71-1.2,17.93-2.38,31.46-5.88,61.14-2.13,23.15-3.92,42.82-.87,19.18-1.85,22.15-1.74,12.8-1.14,17.91-.63,9.45-3.05,40.5Z"/>
    <path class="st0" d="M571.25,128.37l-12.11-17.26-6.21-4.58c3.26-1.11,5.89.77,7.64,3.4l11.64,17.52.52.75,9.12,15.32,11.98,24.89,7.56,20.52,2.97,7.31,10.4,35.36,6.18,27.86,2.63,15.52c.71,4.16,1.56,7.85,1.58,12.32,0,3,1,5.53,1.31,8.5l1.52,14.6c.56,5.43,1.39,9.89.88,14.98-1.26-1.6-1.54-2.68-1.65-3.96l-1.31-15.5-3.46-27.25-2.21-12.91-4.42-20.25-1.58-8.23-12.45-41.66-9.47-25.6-4.65-10.26-15.87-30.79-.55-.59Z"/>
    <path class="st0" d="M447.18,246.22l-7.65-11.42-4.78-6-17.94-23.63c4.58,2.75,8.07,7.03,11.07,11.23l6.7,9.37,4.71,6.39,8.96,13.46.55.6,14.77,29.36,8.56,20.82,5.76,16.42,3.06,9.73,5.99,17.9,4.64,20.4,2.21,9.99,4.05,14.99,1.49,10.46,1.19,11.82,2.52,17.56c.26,1.45-.57,2.8-1.44,1.81l-1.75-15.38c-1.51-13.28-2.43-25.88-6.78-38.73l-3.49-15.34c-2.83-12.42-5.95-23.9-10.26-35.8l-11.76-32.49-6.92-16.1-13-26.62-.48-.79Z"/>
    <path class="st0" d="M501.34,288.33l-5.14-12.3-5.6-12.33-10.08-22.06-4.95-7.8-12.48-19.6-12.58-17.11-13.58-15.71-14.51-13.4-15.81-12.81c8.89,2.88,13.74,9.7,21.06,14.47,3.83,2.49,6.55,6.84,9.77,10.29l10.08,10.76,10.64,13.49c5.58,7.07,10.65,14.8,15.21,22.62l8.15,13.99,14.74,31.33,3.59,8.6,2.39,6.95.62.48,4.15,10.23,6.08,21.91c2.95,10.65,5.79,20.84,7.34,31.76l2.06,14.61.39.54,1.58,24.07.46,12.78.61,12.13-.11,11.11.09,9.6.27,7.57-.27,20.76-.86,13.77-.83,11.26-1.02,11.58c-.49,5.56-.19,10.5-2.31,15.55l.16-7.29,1.13-17.82,1.91-27.51.31-27.51.08-6.1-1.63-51.33-.38-12.1-.48-.5-3.46-20.02-3.57-18.46-4.5-12.38-4.93-18.2-3.37-9.27-.39-.59Z"/>
    <path class="st0" d="M556.37,171.33l-5.49-8.9-15.1-23.87,1.91-.36,6.72,10.8,7.46,11.62,5.42,10.01.32.61c13.38,25.25,23.92,51.62,30.5,79.94l2.51,7.62c4.94,19.22,8.44,38.47,10.63,58.34.35,3.17.26,6.5-.27,9.83l-2.99-22.9-5.53-29.97-4.57-18.14-9.27-31.99-6.16-16.84-12.44-27.81-3.25-7.41-.4-.57Z"/>
    <path class="st0" d="M519.45,251.28l-8.38-23.13c6.03,6.78,6.96,15.16,9.16,22.55l.67.42,6.18,13.32,5.94,18.16,2.77,14.11c2.58,13.14,6.82,24.96,9.01,38.13l1.4,8.42,4.69,25.88.7,14.99-.51,8.73c-.02.33,1.24,1.79.97,1.99l-1.82,1.33c-.56-7.66.62-15.35-.39-23.2-2.52-19.45-6.59-38.56-10.47-57.91l-5.04-17.85-3.35-15.63-5.96-17.51-4.79-12.36-.77-.44Z"/>
    <path class="st0" d="M640.41,201.35c-4.02-15.31-9.15-30.18-14.76-45.48-4.27-11.67-10.4-21.71-17.02-32.22l-9.59-15.25-8.08-9.99c.02-.42.38-2.5.71-2.28.5.34,1.64,1.16,2.07,1.78l5.6,8.19,10.69,16.24c5.96,9.05,11.96,18.08,15.51,28.38l3.37,9.78c4.66,13.54,9.74,26.63,12.97,40l-.03.58,1.66,4.95,2.45,8.62,3.73,14.36,1.23,6.03c.34,1.68-.36,4.42-1.23,5.33-.66-6.39-1.4-11.59-3.11-17.42l-2.77-9.47.15-3.45c.03-.76-1.89-1.72-2.41-2.25l-.78-5.84-.35-.59Z"/>
    <path class="st0" d="M575.81,346.25c.25,2.72.15,4.8-1.32,6.24l-1.01-13.33c-.94-12.39-1.8-24.26-4.9-36.32-3.74-14.54-8.04-28.55-13.57-42.56l1.4-1.88,3.57,10.91,8.62,27.34,3.05,11.89,2.61,20.75,1.55,16.97Z"/>
    <path class="st0" d="M495.47,201.22l-11.55-17.8c-7.07-10.89-14.81-20.87-24.25-29.62l-10.96-10.16c-3.22-2.98-8.46-2.86-10.77-8.29l7.72,4.37,8.83,7.14c8,6.47,15.21,13.34,21.14,21.9l14.75,21.28,5.92,10.6.59.48c4.77,7.04,9.32,14.48,12.01,23.45l-12.8-22.8-.61-.56Z"/>
    <path class="st0" d="M503.44,608.48c.27-6.62,2-12.54,3.33-18.76l6.16-28.84,1.88-10.03,2.9-19.38,1.97-12.31c.46,2.39.75,5.63.4,7.83l-2.09,13.35-6.57,37.98-7.99,30.17Z"/>
    <path class="st0" d="M611.1,462.81l-7.85,26.99-1.68.45,8.58-29.89,3.73-13.33,3.72-14.95,3.04-14.03c.59,4.26-.21,7.52-1.05,11.48l-2.06,9.69-4.29,15.79-2.14,7.8Z"/>
    <path class="st0" d="M545.89,231.71c-3.82-6.18-5.78-12.74-8.82-19.37l-5-10.91-6.45-12.75c-1.57-3.1-4.09-5.55-3.03-9.89l11.18,21.87,4.23,9.82c3,6.96,6.9,13.16,7.89,21.22Z"/>
    <path class="st0" d="M577.04,398.84c-1.68,1.89-2.24.99-1.33-.89v-18.62s-.14-8.08-.14-8.08l-.53-10.04c-.16-3.06-.92-5.84,1.12-8.51l.9,12.32.28,11.1-.31,22.72Z"/>
    <path class="st0" d="M501.37,151.46l-21.69-25.93c3.66.76,5.33,3.37,7.35,5.83l7.66,9.38,7.65,9.66.62.58,2.81,3.71,8.05,10.98,6.77,9.73,1.5,1.55c.37.39-.65,1.43-1.47,2.25l-4.67-7.81-8.36-11.69-5.59-7.81-.62-.44Z"/>
    <path class="st0" d="M622.51,411.42l2.28-17.74,1.59-10.31,1.12-9.06c1.6-1.38,1.95-.42.93,1.18l-1.28,13.74c-.71,7.68-1.48,14.83-4.64,22.18Z"/>
    <path class="st0" d="M506.6,463.8c.12,2.19.22,3.29-1.24,4.58l-.65-17.79-2.91-20.75,1.07-.65,2.7,15.59,1.04,19.03Z"/>
    <path class="st0" d="M567.44,471.22l.11-5.4,4.1-19.13-.09-5.08c3.9,3.81.58,6.83.03,10l-1.89,10.81-2.26,8.8Z"/>
    <path class="st0" d="M412.69,201.24l-16.42-16.17c-1.67-1.64-4.12-2.59-4.96-5.26,5.75,3.83,10.3,8.24,15.11,13.09l6.76,6.83-.49,1.5Z"/>
    <path class="st0" d="M602.66,377.45c-.96-5,.22-9.85-.02-15.16l-.39-8.66-.84-11.58c-.24-3.32-.36-6.49,2.13-8.68l-.2,7.81.85,11.66.18,8.04c.12,5.41-.43,10.82-1.71,16.59Z"/>
    <path class="st0" d="M534,136.38l-7.97-9.13-10.07-10.3c7.28,2.08,10.57,8.95,15.53,13.98,1.59,1.61,2.6,3.15,2.5,5.45Z"/>
    <path class="st0" d="M655.28,292.54c-.11,3.23,2.5,5.91-.92,8.47l-.39-16.8c-.08-3.38-2.81-7.16.73-10.79l.81,11.95-.24,7.16Z"/>
    <path class="st0" d="M546.92,552.13l3.75-14.42,3.01-11.24,2.02.94c.48.22-.15.73-1.1,1.52l-6.29,22.88-1.4.32Z"/>
    <path class="st0" d="M560.58,502.32c-.67,2.67.75,6.49-2.85,7.62l5.94-25.81c1.39,6.47-1.45,11.59-3.09,18.18Z"/>
    <path class="st0" d="M386.93,177.44l-8.8-6.15-11.25-8.05c6.73,2.43,11.44,6.33,17.18,10.21,1.41.95,3.33.32,2.87,4Z"/>
    <path class="st0" d="M654.8,327.38l-.33-12.3c-.13-4.79-.67-9.2,1.25-13.92l-.03,9.92c-.02,5.32,1.72,11.22-.89,16.3Z"/>
    <path class="st0" d="M629.18,370.54c-.02.39-.29,2.04-.45,1.8l-1.52-2.21,1.63-13.98c.23-1.98-2.64-4.57,1.18-6.56l-.26,11.47-.58,9.48Z"/>
    <path class="st0" d="M654.13,273c-.95-3.85-.95-6.92-1.29-10.65l-1.08-9.24c-.22-1.9,0-3.22,2.07-4.9l-.55,8.95,1.59,4.01-.73,11.83Z"/>
    <path class="st0" d="M629.52,340.98l1.07,1.48-.41,1.45c-.12.43-1.49-.69-1.8-1.08l.15-16.81c2.85,3.42,1.5,11.23.99,14.96Z"/>
    <polygon class="st0" points="551.06 426.3 550.51 406.25 552.04 406.24 552.15 425.78 551.06 426.3"/>
    <g>
      <path class="st0" d="M441.13,126.74l.16-11.14c.02-1.37,2.48-3.88,3.72-4.05s3.21,1.12,4.4,2.24l8.87,8.3-17.15,4.64Z"/>
      <path class="st0" d="M421.06,131.22l-8.36,1.83,5.91-16.25c2.79,5.13,2.73,9.15,2.45,14.41Z"/>
    </g>
  </g>
  <g>
    <path d="M804.43,633.25c-.68-23.83-13.26-46.8-29.34-63.99l-20.74-22.17c-13.7-14.64-26.17-42.54-13.35-58.39,4.44-5.49,12.29-10.09,19.86-9.43,8.27.72,13.04,6.98,12.14,14.66l-4.86,2.41c-.87.43-2.52,2.4-1.98,3.17,3.13,4.43,11.85-.14,14.47-6.18,2.08-4.8.58-9.63-1.59-13.82-3.3-6.39-7.84-8.94-14.69-9.44-17.36-1.25-34.36,9.96-36.52,28.14-2.02,16.94,6.2,36.06,17,49.19l10.42,12.67,12.07,13.83c4.72,5.4,7.83,12.83,11.48,19.21,2.68,4.68,4.59,8.94,6.27,14.33l3.74,12.03c2.24,7.2,2.32,13.84,2.19,21.14-.23,12.77-1.02,25.56-4.88,37.73l-2.7,8.49-7.13,18.58-8.76,16.3-7.95,12.11-4.67,6.96-1.47-.43,3.11-4.8,14.35-23.53c4.39-7.2,7.31-14.5,9.57-22.42l2.42-8.49,4.29-17.39c.69-2.81,1.12-7.67,1.18-10.84l.46-24.4-1.45-8.46c-2.66-5.01-4.3-9.81-4.65-15.26l-16.72-29.61-10.55-11.13-5.4-6.68c-7.61-9.43-15.13-18-19.67-29.47-6.36-16.08-8.16-34.95,3.21-48.08,9.13-10.54,24.41-13.93,38.06-10.25,4.38,1.18,6.3,4.36,8.58,7.72,5.45,8.06,4.76,18.82-4,24.29-1.96,1.23-5.24,2.28-7.4,2.07-1.82-.18-5.01-2.49-5.31-4.64-.66-4.77,9.18-9.83,5.41-11.43-7.89-3.34-18.34.65-21.68,8.66-1.84,4.41-1.08,9.59,1.39,13.38,7,10.76,19.36,13.63,30.98,9.31,11.25-4.18,20.23-12.47,23.48-22.63,3.87-12.08,1.98-24.99-5.83-34.03-5.93-6.87-14.3-10.21-23.16-12.04-16.07-3.32-33.56.5-46.67,10.22-11.39,8.45-15.86,18.54-17.45,32.78-1.65,14.81,1.7,28.41,5.56,42.36l4.4,15.86,8.51,26.65c5.74,17.98,8.9,36.14,7.43,55.21-.78,10.1-4.09,19.55-8.03,28.65-15.39,35.52-47.51,55.55-85.83,58.11l-13.99.94-31.89.56-42.03.81h-98.16s-.74-18.66-.74-18.66l-.71-28.3.05-10.05-.93-21.1-.87-34.24-.93-28.51-.65-25.2-.56-20.46-.56-13.53-1.03-30.05-1.77-60.87-.66-38.57-2.01-73.14c18.39,31.5,32.25,79.05,36.17,114.31l2.05,18.47c3.94,35.43,4.42,70.13,1.33,105.81l-6.06,70.01-5.39,30.88-6.62,31.15,4.33,2.3,30.63-34.39,35.99-44.94,28.87-37.21,35.36-50.73c21.22-30.45,42-78.88,53.16-114.62,10.7-34.27,15.73-68.73,18.87-104.31,1.13-12.84,1.41-24.38.78-36.99-1.18-23.89-2.2-47.02-7.63-70.53l-9.79-42.31-14.54-41.44-13.01-29.51,66.53-18.75,34.89-10.15,25.59-8.52c.43-1.42.27-1.8-.47-1.94l-30.32,6.2-44.85,11.25-91.84,24.37-33.3,8.6-10.12,2.8-33.19,8.81-47.15,12.09-17.52-22.24-10.84-56.04-7.99-42.07c-3.16,7.85-2.49,14.73-3.34,22.27l-4.15,36.92-1.33,10.97-4.33,33.61c-1.35,10.47-7.54,19.63-8.5,30.84l-34.98,9.31-26.17,6.71-22.14,5.77-10.86,2.55-46.99,11.87-34.55,8.81-19.21,5.53c-19.15,5.51-37.78,11.15-56.15,18.69l-10.75,4.41,20.08-2.99,51.18-11,80.06-19.83c31.3,11.24,59.65,29.58,83.54,53.65l-14.29,45.75-2.54,8.29-4.64,14.48-5.1,15.78-4.34,13.52-2.12,6.77-3.19,10.08-27.12,86.83-17.52,59.7-10.61,36.5-18.35,66.53-10.61,37.28-9.01,30.87-11.3,34.8-8.98,27.01-11.93,1.42c-23.17-.36-45.67-.89-68.66-3.97-30.49-4.08-61.79-16.92-79.29-42.6-4.19-6.14-7.11-13.27-9.78-20.39-8.46-22.47-12.7-65.81-2.47-86.42,6.98-14.07,20.93-22.56,36.4-21.48,6.51.45,12.89,3.49,15.49,9.71,2.85,6.82-1.56,15.62-9.02,17.58-3.15.83-8.4-.9-11.38-1.44-2.82,2.68-.36,7.26,3.02,9.37,5.04,3.15,13.04,3.31,18.05-.22,6.94-4.88,9.68-12.64,10.67-20.52,1.31-10.46-4.07-18.69-13.8-22.62-30.71-12.39-60.28,7.55-70.88,39.13l-2.79,8.31c-3.15,9.38-5.04,18.76-5.18,28.63l-.31,21.12.44,10.42,1.04,11.03c2.55,27.14,11.44,51.74,27.62,73.56,4.36,5.88,9.09,10.6,14.87,15.27l10.86,8.77,12.14,7.17,8.89,4.82,12.71,4.63,8.3,2.15,18.89,2.19,42.49.73,32.58.35,19.46-.15,21.65-.06,23.8-.9,11.29-.31,22.74-.63,12.13.16,9.87.13,30.75-.25,34.32-.63,17.64.42,15.39-.04,53.14.02,17.23-.62c6.69-.24,13.35.55,19.91,1.88,6.2,1.26,13.77-.37,20.33-.21l47.21,1.18,35.12-.39,20.61-1.56,33.56-7.63c6.6-1.5,13.59-3.08,19.22-6.73,4.9-3.18,13.09-4.85,23.41-14.34l8.27-7.61c.33-1.45.8-1.68,1.44.78l-8.78,8.75-12.24,8.41-8.49,4.67c-7.32,4.03-14.79,5.97-22.67,8.37-14.84,4.51-29.7,8.45-45.16,9.09l-17.31.72-24.39.08-34.4-1.07-7.1-.15-16.94.07c-6.69.03-12.58.71-19.27-.99-2.73-.69-6.14.01-8.76.04l-8.36.1-14.74-.39-47.18-.3-20.7-.06-24.38-.16-28.64.54-18.84.31-14.93.16-9.78-.44-7.74.24-14.76.17-13.06.15-14.53.43-12.26.35-13.96.31-9.22-.09-15.76.11-9.19-.21-24.5-.09-21.65.11-16.81-.77-13.03-.96-12.17-1.14c-3.06-.29-8.13-2.09-11.21-3.19l-9.72-3.48c-3.83-1.37-8.41-3.78-11.77-5.92l-10.61-6.75-8.25-6.44c-8.81-6.87-16.21-14.21-22.28-23.42l-4.54-6.9-5.87-10.07-6.84-16.38-1.39-4.9-3.74-16.9-3.02-27.88.2-30.81,1.53-10.47,1.73-10.47,2.12-7.62c4.73-17.02,12.76-30.98,27.11-41.97,15.45-11.83,43.58-13.04,57.14-.5,10.32,9.55,8.92,25.47,1.33,36.11-6.77,9.49-19.34,11.25-28.59,4.22-3.11-2.36-3.97-7.33-1.78-9.91,2.82-3.34,6.06-3.63,11.29-1.26l.84-9.66c.49-5.62-18.5-9.09-27.8,4.82-3.78,5.65-5.06,15.09-1.92,21.26,8.23,16.12,25.93,20.6,42.17,16.1,10.44-2.89,18.64-7.62,24.98-16.33,6.6-9.09,9.32-18.51,8.54-29.9-.77-11.35-4.23-21.62-13.21-29.39-7.27-6.29-15.97-11.8-26-13.76-34.36-6.73-71.2,14.38-87.91,45.6-10.4,19.44-15.52,40.26-17.38,62.5-3.85,46.01,2.05,101.02,31,138l10.58,13.51c7.8,9.96,16.59,18.59,26.85,26.27,10.38,7.78,21.94,12.88,33.67,17.95.84.13,1.68.38,2.49.72,1.19.27,2.24.74,3.16,1.37.07.02.15.03.22.04,1.11.25,2.14.76,3.08,1.42.34.24.72.43,1.12.55.45.13.88.29,1.3.48s.84.31,1.29.33c3.83.22,7.66.53,11.49,1.06,6.7.93,13.7.53,20.54.71l12.37-.36,32.9.44,10.06-.06,6.91-.04,11.03-.05,24.96-.02,36.32.31,34.8-.35,9.78.09,8.56.14,32.53.31,21.45-.27,14.18-.03,37.65-.08,11.36-.58,15.33.5,27.35-.06h8.32s5.85.08,5.85.08l50.51.07h33.06s35-.02,35-.02l10.08-.02,25.25.06c.62,0,1.24-.05,1.85-.15.49-.08.99-.16,1.49-.24,2.68-.4,5.89-.27,8.46-.89,2.13-.52,4.18-1.3,6.41-1.69,5.46-.95,10.83-3.3,15.45-4.76,0,0,0,0,.01,0,.87-.27,1.72-.6,2.52-1.06l8.95-5.15,31.21-24.95c26.09-23.56,44.13-53.88,56.17-86.72,6.26-17.09,9.42-33.46,8.91-51.53l-.46-16.27ZM723.7,532.35c-5.64-17.3-8.7-30.03-2.31-47.9,7.77-21.72,34.65-30.49,55.95-23.34,11.06,3.71,16.39,15.11,16.55,26,.16,10.5-5.18,17.57-13.73,22.27-8.14,4.46-18.45,4.04-23-5.26-1.16-2.38-2.73-6.92,1.68-8.53-1.83,6.02,1.56,10.14,4.96,12.66,5.45,4.03,10.34,1.7,15.25-.72,8.44-4.15,12.61-11.07,12.63-20.36.01-7.93-2.22-14.57-8.9-19.89-14.8-11.81-47.11-7.53-57.78,15.87-5.15,11.29-6.02,22.49-3.3,34.49l4.4,13.38,4.27,11.78,4.9,8.57,3.31-1.81c.57-.31,1.7,1.57,2.15,2.1,9.32,11.11,18,22.16,25.03,34.94l3.2,7.01,3.82,9,4.23,12.01c5.47,20.77,4.58,42.27-1.49,62.82l-7.94,22.26c-2.3,6.45-4.61,12.67-10.12,17.99l6.36-13.61,11.05-30.85c4-11.17,4.81-40.89,1.75-51.01l-4.93-16.31c-5.01-16.55-20.94-39.61-33.15-53.08l-5.16-.82c-3.87-6.29-7.38-12.59-9.68-19.64ZM756.12,589.41l-2.88-4.18-5.42-8.84,1.2-1.52c3.19,4,5.74,8.66,7.1,14.54ZM735.67,556.59l6.84,7.59c2.12,2.35,4.04,6.87,5.6,10.06l-.85,1.05-5.93-9.48c-1.84-2.94-7.49-4.44-5.66-9.22ZM439.53,234.79l-4.78-6-17.94-23.63c4.58,2.75,8.07,7.03,11.07,11.23l6.7,9.37,4.71,6.39,8.96,13.46-1.07.6-7.65-11.42ZM323.62,675.73l3.15-15.74,7.75-42.32,7.15-35.29,7.35-34.47,5.91-29.72,5.34-29.72,5.72-29.59,8.6-44.33,1.84-8.07,6.35-30.65,4.6-23.02,4.08-22.02,3.99-21.01,3.21-17.79,5.45-23.3,3.04-11.01,5.13,5.84-4.88,32.69-1.26,8.94-3.34,20.51-2.1,17.74-.89,5.52-8.23,53.4-2.38,17.28-8.94,54.76-2.38,15.31-3.44,23.42-4.13,28.56-2.19,18.47-1.67,10.9-2.34,17.23-2.53,17.06-2.57,21.47-2.44,16.62-1.63,11.26-6.02,38.01-4.36,29.42-15.39.1-14.49.1,8.95-46.58ZM307.67,721.98l-28.81.6,3.89-17.69,11.61-49.7,11.44-52.46,3.23-13.67,15.77-61.05,8.26-31.69,3.71-16.4,15.64-58.24,12.3-48.83,6.31-26.69,2.68-11.64,2.75-12.1,5.14-21.91,4.42-18.28,9.93-37.61,6.96,8.25c-5.32,18.46-9,36.1-12.36,54.72l-3.37,18.72-3.51,17.2-4.45,21.09-2.53,15.55-9.41,45.08-5.31,25.06-4.1,21.79-8.8,44.99-5.76,30.68-4.11,18.03-1.83,8.62-3.54,18.58-3.06,15.47-3.7,17.49-6.21,28.8-13.17,67.24ZM353.05,712.1l4.1-29.92,9.63-69.79,2.67-22.64,1.66-16.3,2.79-21.17,2.7-16.1,1.92-13.2,7.88-51.67,2.72-17.16,1.27-7.93,10.57-71.27,4.79-32.15,2.06-15.26,4.38-30.26,4.26-27.08c2.08,2.27,5.25,6.78,4.91,9.82l-1.99,17.66-2.61,22.09-3.57,32.54-4.51,44.65-2.15,18.71-1.2,17.93-2.38,31.46-5.88,61.14-2.13,23.15-3.92,42.82-.87,19.18-1.85,22.15-1.74,12.8-1.14,17.91-.63,9.45-3.05,40.5-1.04,8-28.54.28.89-10.33ZM391.69,668.08l.17-10.59,3.18-32.2.88-17.02,1.88-28.97,2.29-25.01,1.18-14.93,4.48-56.32,1.77-22.79,1.16-12.71,2.05-24.48,3.53-29.61,3.42-35.27,6.63-66.85c.25-2.48-.19-3.68,1.68-5.24l-.55,13.06.1,31.64-.07,9.28.23,20.11.35,31.09.33,11.35.21,28.9.23,17.64-.3,7.84.45,6.67c-.41,2.53-.09,5.08.08,8.06l.35,6.31-.07,10.04.07,12.97-.05,8.39-.07,15.69.03,13.08.4,42.1.64,34.36.39,31.56.23,17.26.89,58.85-41.94.09,3.76-54.34ZM499.86,412.08c-1.51-13.28-2.43-25.88-6.78-38.73l-3.49-15.34c-2.83-12.42-5.95-23.9-10.26-35.8l-11.76-32.49-6.92-16.1-13-26.62,1.13-.79,14.77,29.36,8.56,20.82,5.76,16.42,3.06,9.73,5.99,17.9,4.64,20.4,2.21,9.99,4.05,14.99,1.49,10.46,1.19,11.82,2.52,17.56c.26,1.45-.57,2.8-1.44,1.81l-1.75-15.38ZM507,298.42l6.08,21.91c2.95,10.65,5.79,20.84,7.34,31.76l2.06,14.61-.9.56-3.46-20.02-3.57-18.46-4.5-12.38-4.93-18.2-3.37-9.27,1.12-.72,4.15,10.23ZM496.09,201.77l.79-.65c4.77,7.04,9.32,14.48,12.01,23.45l-12.8-22.8ZM511.07,228.15c6.03,6.78,6.96,15.16,9.16,22.55l-.79.58-8.38-23.13ZM502.85,429.18l2.7,15.59,1.04,19.03c.12,2.19.22,3.29-1.24,4.58l-.65-17.79-2.91-20.75,1.07-.65ZM520.08,526.98l-2.09,13.35-6.57,37.98-7.99,30.17c.27-6.62,2-12.54,3.33-18.76l6.16-28.84,1.88-10.03,2.9-19.38,1.97-12.31c.46,2.39.75,5.63.4,7.83ZM525.49,465.25l-.86,13.77-.83,11.26-1.02,11.58c-.49,5.56-.19,10.5-2.31,15.55l.16-7.29,1.13-17.82,1.91-27.51.31-27.51.08-6.1-1.63-51.33-.38-12.1.81-.52,1.58,24.07.46,12.78.61,12.13-.11,11.11.09,9.6.27,7.57-.27,20.76ZM534.33,297.23l-3.35-15.63-5.96-17.51-4.79-12.36.68-.59,6.18,13.32,5.94,18.16,2.77,14.11c2.58,13.14,6.82,24.96,9.01,38.13l1.4,8.42,4.69,25.88.7,14.99-.51,8.73c-.02.33,1.24,1.79.97,1.99l-1.82,1.33c-.56-7.66.62-15.35-.39-23.2-2.52-19.45-6.59-38.56-10.47-57.91l-5.04-17.85ZM522.59,178.79l11.18,21.87,4.23,9.82c3,6.96,6.9,13.16,7.89,21.22-3.82-6.18-5.78-12.74-8.82-19.37l-5-10.91-6.45-12.75c-1.57-3.1-4.09-5.55-3.03-9.89ZM552.15,425.78l-1.09.52-.55-20.05h1.53s.12,19.53.12,19.53ZM554.61,528.94l-6.29,22.88-1.4.32,3.75-14.42,3.01-11.24,2.02.94c.48.22-.15.73-1.1,1.52ZM560.58,502.32c-.67,2.67.75,6.49-2.85,7.62l5.94-25.81c1.39,6.47-1.45,11.59-3.09,18.18ZM571.59,451.61l-1.89,10.81-2.26,8.8.11-5.4,4.1-19.13-.09-5.08c3.9,3.81.58,6.83.03,10ZM573.49,339.16c-.94-12.39-1.8-24.26-4.9-36.32-3.74-14.54-8.04-28.55-13.57-42.56l1.4-1.88,3.57,10.91,8.62,27.34,3.05,11.89,2.61,20.75,1.55,16.97c.25,2.72.15,4.8-1.32,6.24l-1.01-13.33ZM577.04,398.84c-1.68,1.89-2.24.99-1.33-.89v-18.62s-.14-8.08-.14-8.08l-.53-10.04c-.16-3.06-.92-5.84,1.12-8.51l.9,12.32.28,11.1-.31,22.72ZM600.98,326.96l-2.99-22.9-5.53-29.97-4.57-18.14-9.27-31.99-6.16-16.84-12.44-27.81-3.25-7.4.84-.66c13.38,25.25,23.92,51.62,30.5,79.94l2.51,7.62c4.94,19.22,8.44,38.47,10.63,58.34.35,3.17.26,6.5-.27,9.83ZM603.53,333.36l-.2,7.81.85,11.66.18,8.04c.12,5.41-.43,10.82-1.71,16.59-.96-5,.22-9.85-.02-15.16l-.39-8.66-.84-11.58c-.24-3.32-.36-6.49,2.13-8.68ZM619.59,429.53l-2.06,9.69-4.29,15.79-2.14,7.8-7.85,26.99-1.68.45,8.58-29.89,3.73-13.33,3.72-14.95,3.04-14.03c.59,4.26-.21,7.52-1.05,11.48ZM628.42,375.5l-1.28,13.74c-.71,7.68-1.48,14.83-4.64,22.18l2.28-17.74,1.59-10.31,1.12-9.06c1.6-1.38,1.95-.42.92,1.18ZM629.76,361.06l-.58,9.48c-.02.39-.29,2.04-.45,1.8l-1.52-2.21,1.63-13.98c.23-1.98-2.64-4.57,1.18-6.56l-.26,11.47ZM630.18,343.92c-.12.43-1.49-.69-1.8-1.08l.15-16.81c2.85,3.42,1.5,11.23.99,14.96l1.07,1.48-.41,1.45ZM654.8,327.38l-.33-12.3c-.13-4.79-.67-9.2,1.25-13.92l-.03,9.92c-.02,5.32,1.72,11.22-.89,16.3ZM654.36,301.01l-.39-16.8c-.08-3.38-2.81-7.16.73-10.79l.81,11.95-.24,7.16c-.11,3.23,2.5,5.91-.92,8.47ZM653.83,248.21l-.55,8.95,1.59,4.01-.73,11.83c-.95-3.85-.95-6.92-1.29-10.65l-1.08-9.24c-.22-1.9,0-3.22,2.07-4.9ZM643.52,206.04l2.45,8.62,3.73,14.36,1.23,6.03c.34,1.68-.36,4.42-1.23,5.33-.66-6.39-1.4-11.59-3.11-17.42l-2.77-9.47.15-3.45c.03-.76-1.89-1.72-2.41-2.25l-.78-5.84,1.09-.85,1.66,4.95ZM591.68,96.13c.5.34,1.64,1.16,2.07,1.78l5.6,8.19,10.69,16.24c5.96,9.05,11.96,18.08,15.51,28.38l3.37,9.78c4.66,13.54,9.74,26.63,12.97,40l-1.46.85c-4.02-15.31-9.15-30.18-14.76-45.48-4.27-11.67-10.4-21.71-17.02-32.22l-9.59-15.25-8.08-9.99c.02-.42.38-2.5.71-2.28ZM581.86,143.53l11.98,24.89,7.56,20.52,2.97,7.31,10.4,35.36,6.18,27.86,2.63,15.52c.71,4.16,1.56,7.85,1.58,12.32,0,3,1,5.53,1.31,8.5l1.52,14.6c.56,5.43,1.39,9.89.88,14.98-1.26-1.6-1.54-2.68-1.65-3.96l-1.31-15.5-3.46-27.25-2.21-12.91-4.42-20.25-1.58-8.23-12.45-41.66-9.47-25.6-4.65-10.26-15.87-30.79.94-.75,9.12,15.32ZM560.58,109.93l11.64,17.52-.97.92-12.11-17.26-6.21-4.58c3.26-1.11,5.89.77,7.64,3.4ZM537.69,138.2l6.72,10.8,7.46,11.62,5.42,10.01-.92.7-5.49-8.9-15.1-23.87,1.91-.36ZM531.5,130.94c1.59,1.61,2.6,3.15,2.51,5.45l-7.97-9.13-10.07-10.3c7.28,2.08,10.57,8.95,15.53,13.98ZM505.77,154.71l8.05,10.98,6.77,9.73,1.5,1.55c.37.39-.65,1.43-1.47,2.25l-4.67-7.81-8.36-11.69-5.59-7.81.97-.91,2.81,3.71ZM487.03,131.37l7.66,9.38,7.65,9.66-.97,1.05-21.69-25.92c3.66.76,5.33,3.37,7.35,5.83ZM441.29,115.61c.02-1.37,2.48-3.88,3.72-4.05,1.24-.16,3.21,1.12,4.4,2.24l8.87,8.3-17.15,4.64.16-11.14ZM445.66,139.72l8.83,7.14c8,6.47,15.21,13.34,21.14,21.9l14.75,21.28,5.92,10.6-.81.57-11.55-17.79c-7.07-10.89-14.81-20.87-24.25-29.62l-10.96-10.16c-3.22-2.98-8.46-2.86-10.77-8.29l7.72,4.37ZM418.61,116.8c2.79,5.13,2.73,9.15,2.45,14.41l-8.36,1.83,5.91-16.25ZM427.66,169.68c3.83,2.49,6.55,6.84,9.77,10.29l10.08,10.76,10.64,13.49c5.58,7.07,10.65,14.8,15.21,22.62l8.15,13.99,14.74,31.33,3.59,8.6,2.39,6.95-.88.61-5.14-12.3-5.6-12.33-10.08-22.06-4.95-7.8-12.48-19.6-12.58-17.11-13.58-15.71-14.51-13.4-15.81-12.81c8.89,2.88,13.74,9.7,21.06,14.47ZM406.42,192.91l6.76,6.83-.49,1.5-16.42-16.17c-1.67-1.64-4.12-2.59-4.96-5.26,5.75,3.83,10.3,8.24,15.11,13.09ZM378.13,171.29l-11.25-8.05c6.73,2.43,11.44,6.33,17.18,10.21,1.41.95,3.33.32,2.87,4l-8.8-6.15ZM242.7,708.79l25.16-83.74,18.91-70.08,2.16-7.47,4.92-17.56,2.37-8.62,5.03-17.98,4.55-16.4,11.22-37.73,7.28-25.07,4.1-11.64,12.9-43.23,5.5-17.49,3.47-11.37,5.32-16.75,11.32-36.57,3.93-12.53,7.57-22.96,6.1-19.01,7.51,6.92-6.11,21.42-3.4,14.85-3.83,14.22-3.67,15.03-5.24,20.8-4.08,17.15-3.69,15.28-8.28,34.72-8.81,35.21-14,53.96-8.73,33.11-8.6,33.49-4.79,19.5-17.19,70.5-8.48,33.46-12.09,49.61-17.86.54-15.04.33,4.57-13.92ZM694.19,743.36l-20.08,5.84-7.99,2.17c-14.75,4.01-21.75,2.44-31.96,2.49l-7.1.04-13.73.03-12.51-.48-21.59.05-10.31.44-9.88-.09c-3.66-.03-6.8-.58-9.82-2.18l-2.11,2.04c-.6.58-2.81-.84-3.68-.99l-11.97.11-30.07.9-15.06-.14-28.8.21-11.44.16-20.06-.95-8.84-.2-12.29-.12-5.87.85-7.95.42-5.53.33-28.28.25c-2.79.02-4.48-.09-6.73-1.8-1.06.42-4.67,1.73-6.23,1.51l-8.34-1.2-6.72.71-15.11-.05-16.08-.07-19.23.97-17.44.21-13.65.31-7.87.56-39.66-.75-16.71-1.26-16.43.11-12.68-.56-13.35-.9-16.91-1.73-11.26-2.05-14.94-4.03-12.66-5.14c-10.23-4.15-19.5-10.55-25.87-19.34,12.48,10.25,31.65,22.08,45.45,24.83l20.75,4.13,7.48.6,32.51,2.25h17.45s13,.94,13,.94l42.8,1.07,11.18-.74,42.06-1.59,15.69-.39,22.34.03,13.05.28,12.11.56h26.43s18.94-.4,18.94-.4l29.59-.22,17.88.53,37-.67,19.07.34,7.86.1,18.1-1.44,22.3.8c3.49.13,5.64.17,8.94.29l14.36.55c6.62-1.21,11.77-.69,18.47-.74l11.83-.09,14.21.55c14.14.54,28.54,1.6,42.39-1.93l13.64-3.48,20.98-6.02,10.21-4.66,7.41-3.65c5.43-2.68,9.42-7.66,15.31-9.82-9.93,10.67-22.73,16.18-36,21.3ZM707.89,791.93l-12.38,5.68c-14.97,6.87-31.05,7.19-47.4,7.69l-19.55.6-31.53-.81-22-.21-10.09-.12-13.85.67-12.94-.03-17.86-.42-27.32.3-32.12.31-22.05-.51-16.18.49-54.87.17-14.75.02-39.43-.99-21.31-.35-36.18-.2h-27.99s-26.81.43-26.81.43l-8.27-.03-25.08-.17c-14.98-.1-29.4-.6-43.92-3.92l-12.16-2.77-8.35-2.62c-4.91-1.54-8.56-3.57-12.82-6.17-4.2-2.56-8.08-4.5-11.45-7.8l-12.12-11.88-13.79-15.23-9.71-14.26-10.6-17.51c-3.19-5.27-6.09-11.55-8.18-17.43l-4.28-12.01c-4.14-11.62-7.97-28.86-7.99-40.85l-.03-18.31.95-14.01c1.91-28.3,7.46-50.57,26.64-71.45,4.56-4.96,9.93-8.56,15.75-12.4,15.91-10.5,36.15-13.56,54.21-6.43,7.05,2.78,14.47,7.91,18.11,14.41l4.29,10.73c2.68,6.71,1.32,13.54.37,20.09-1.05,7.25-4.68,11.73-10.18,16.31-10.67,8.89-25.23,9.62-36.54,1.32-7.96-5.83-10.35-16.76-3.39-24.37,3.32-3.63,9.16-4.69,12.61-.69l-6.33-.49c-4.99,1.53-7.67,6.63-8.07,11.1-.51,5.84,2.6,10.07,7.37,13.31,12.78,8.69,28.13,4.91,38.04-6.82,5.04-5.96,7.14-19.97,4.35-27.92l-3.54-10.09c-6.41-11.26-18.71-16.38-31.11-18.06-16.43-2.22-31.33,3.97-44.46,13.44-11.2,8.08-23.28,23.44-27.51,36.64-2.53,7.89-4.95,15.76-6.11,23.89l-2.29,15.97-1.13,16.49-.18,14.63.46,13.45,2.37,9.33c1.99,7.84,3.48,16.86,6.91,23.96l1.23,6.14c4.75,11.71,11.11,23.12,18.13,33.66l12.39,18.6,9.04,10.08,17.86,17.07,13.07,8.09c11.1,6.87,24.43,8.62,37.46,10.3l10.28,1.33,10.64.74,51.05-.06,22.89-.41,9.78-.15,12.05.45,47.61-.09,31.07.97,11.56.09,13.97.14,19.6-.21,55.33-.47,9.05.09,14.83.28,30.78-.18,9.43.25,18.27-.25,22.72.24h11.51s18.48-.27,18.48-.27l9.94.4,10.95-.59,28.09,1.27,20.21-.58,10.2-1.04c16.95.51,33.88,1.06,50.07-5.47l9.08-4.56c6.83-3.43,13.61-5.65,19.36-10.68l17.37-15.17c-8.03,11.33-19.22,20.22-31.57,25.89ZM739.18,722.45c-1.62,2.79-4.59,5.58-7.39,7.81l11.24-18.13,3.64-6.41,4.63-8.43c3-5.46,5.04-10.58,6.68-16.71l3.09-11.56c2.56-9.57,6.52-18.72,6.76-28.62.27-11.06-1.37-21.62-4.83-31.89l-3.87-11.48c6.23,3.69,10.73,26.39,10.56,34.25l-.26,12.29c-.22,10.21-5.4,19.91-7.69,29.87l-1.79,7.8c-1.54,6.72-4.32,12.82-7.84,18.9l-12.93,22.3Z"/>
    <path class="st0" d="M545.7,802.74l18.48-.27,9.94.4,10.95-.59,28.09,1.27,20.21-.58,10.2-1.04c16.95.51,33.88,1.06,50.07-5.47l9.08-4.56c6.83-3.43,13.61-5.65,19.36-10.68l17.37-15.17c-8.03,11.33-19.22,20.22-31.57,25.89l-12.38,5.68c-14.97,6.87-31.05,7.19-47.4,7.69l-19.55.6-31.53-.81-22-.21-10.09-.12-13.85.67-12.94-.03-17.86-.42-27.32.3-32.12.31-22.05-.51-16.18.49-54.87.17-14.75.02-39.43-.99-21.31-.35-36.18-.2h-27.99s-26.81.43-26.81.43l-8.27-.03-25.08-.17c-14.98-.1-29.4-.6-43.92-3.92l-12.16-2.77-8.35-2.62c-4.91-1.54-8.56-3.57-12.82-6.17-4.2-2.56-8.08-4.5-11.45-7.8l-12.12-11.88-13.79-15.23-9.71-14.26-10.6-17.51c-3.19-5.27-6.09-11.55-8.18-17.43l-4.28-12.01c-4.14-11.62-7.97-28.86-7.99-40.85l-.03-18.31.95-14.01c1.91-28.3,7.46-50.57,26.64-71.45,4.56-4.96,9.93-8.56,15.75-12.4,15.91-10.5,36.15-13.56,54.21-6.43,7.05,2.78,14.47,7.91,18.11,14.41l4.29,10.73c2.68,6.71,1.32,13.54.37,20.09-1.05,7.25-4.68,11.73-10.18,16.31-10.67,8.89-25.23,9.62-36.54,1.32-7.96-5.83-10.35-16.76-3.39-24.37,3.32-3.63,9.16-4.69,12.61-.69l-6.33-.49c-4.99,1.53-7.67,6.63-8.07,11.1-.51,5.84,2.6,10.07,7.37,13.31,12.78,8.69,28.13,4.91,38.04-6.82,5.04-5.96,7.14-19.97,4.35-27.92l-3.54-10.09c-6.41-11.26-18.71-16.38-31.11-18.06-16.43-2.22-31.33,3.97-44.46,13.44-11.2,8.08-23.28,23.44-27.51,36.64-2.53,7.89-4.95,15.76-6.11,23.89l-2.29,15.97-1.13,16.49-.18,14.63.46,13.45,2.37,9.33c1.99,7.84,3.48,16.86,6.91,23.96l1.23,6.14c4.75,11.71,11.11,23.12,18.13,33.66l12.39,18.6,9.04,10.08,17.86,17.07,13.07,8.09c11.1,6.87,24.43,8.62,37.46,10.3l10.28,1.33,10.64.74,51.05-.06,22.89-.41,9.78-.15,12.05.45,47.61-.09,31.07.97,11.56.09,13.97.14,19.6-.21,55.33-.47,9.05.09,14.83.28,30.78-.18,9.43.25,18.27-.25,22.72.24h11.51Z"/>
    <path class="st0" d="M768.97,593.6l3.82,9,4.23,12.01c5.47,20.77,4.58,42.27-1.49,62.82l-7.94,22.26c-2.3,6.45-4.61,12.67-10.12,17.99l6.36-13.61,11.05-30.85c4-11.17,4.81-40.89,1.75-51.01l-4.93-16.31c-5.01-16.55-20.94-39.61-33.15-53.08l-5.16-.82c-3.87-6.29-7.38-12.59-9.68-19.64-5.64-17.3-8.7-30.03-2.31-47.9,7.77-21.72,34.65-30.49,55.95-23.34,11.06,3.71,16.39,15.11,16.55,26s-5.18,17.57-13.73,22.27-18.45,4.04-23-5.26c-1.16-2.38-2.73-6.92,1.68-8.53-1.83,6.02,1.56,10.14,4.96,12.66,5.45,4.03,10.34,1.7,15.25-.72,8.44-4.15,12.61-11.07,12.63-20.36.01-7.93-2.22-14.57-8.9-19.89-14.8-11.81-47.12-7.53-57.78,15.87-5.15,11.29-6.02,22.49-3.3,34.49l4.4,13.38,4.27,11.78,4.9,8.57,3.31-1.81c.57-.31,1.7,1.56,2.15,2.1,9.32,11.11,18,22.16,25.03,34.94l3.2,7.01Z"/>
    <path class="st0" d="M634.16,753.86l-7.1.04-13.73.03-12.51-.48-21.59.05-10.31.44-9.88-.09c-3.66-.03-6.8-.58-9.82-2.18l-2.11,2.04c-.6.58-2.81-.84-3.68-.99l-11.97.11-30.07.9-15.06-.14-28.8.21-11.44.16-20.06-.95-8.84-.2-12.29-.12-5.87.85-7.95.42-5.53.33-28.28.25c-2.79.02-4.48-.09-6.73-1.8-1.06.42-4.67,1.73-6.23,1.51l-8.34-1.2-6.72.71-15.11-.05-16.08-.07-19.23.97-17.44.21-13.65.31-7.87.56-39.66-.75-16.71-1.26-16.43.11-12.68-.56-13.35-.9-16.91-1.73-11.26-2.05-14.94-4.03-12.66-5.14c-10.23-4.15-19.5-10.55-25.87-19.34,12.48,10.25,31.65,22.08,45.45,24.83l20.75,4.13,7.48.6,32.51,2.25h17.45s13,.94,13,.94l42.8,1.07,11.18-.74,42.06-1.59,15.69-.39,22.34.03,13.05.28,12.11.56h26.43s18.94-.4,18.94-.4l29.59-.22,17.88.53,37-.67,19.07.34,7.86.1,18.1-1.44,22.3.8c3.49.13,5.64.17,8.94.29l14.36.55c6.62-1.21,11.77-.69,18.47-.74l11.83-.09,14.21.55c14.14.54,28.54,1.6,42.39-1.93l13.64-3.48,20.98-6.02,10.21-4.66,7.41-3.65c5.43-2.68,9.42-7.66,15.31-9.82-9.94,10.67-22.73,16.18-36,21.3l-20.08,5.84-7.99,2.17c-14.75,4.01-21.75,2.44-31.96,2.49Z"/>
    <path class="st0" d="M731.79,730.26l11.24-18.13,3.64-6.41,4.63-8.43c3-5.46,5.04-10.58,6.68-16.71l3.09-11.56c2.56-9.57,6.52-18.72,6.76-28.62.27-11.06-1.37-21.62-4.83-31.89l-3.87-11.48c6.23,3.69,10.73,26.39,10.56,34.25l-.26,12.29c-.22,10.21-5.4,19.91-7.69,29.87l-1.79,7.8c-1.54,6.72-4.32,12.82-7.84,18.9l-12.93,22.3c-1.62,2.79-4.59,5.58-7.39,7.81Z"/>
    <path class="st0" d="M747.26,575.29l-5.93-9.48c-1.84-2.94-7.49-4.44-5.66-9.22l6.84,7.59c2.12,2.35,4.04,6.87,5.6,10.06l.91.64c3.19,4,5.74,8.66,7.1,14.54l-2.88-4.18-5.42-8.84-.55-1.1Z"/>
  </g>
</svg>