<?xml version="1.0" encoding="UTF-8"?>
<svg id="Layer_1" xmlns="http://www.w3.org/2000/svg" version="1.1" viewBox="0 0 690.04 684.94">
  <!-- Generator: Adobe Illustrator 30.6.0, SVG Export Plug-In . SVG Version: 2.1.4 Build 109)  -->
  <defs>
    <style>
      .st0 {
        fill: #fff;
      }
    </style>
  </defs>
  <polygon class="st0" points="359.56 485.95 289.48 495.21 287.9 438.24 361.6 433.41 359.56 485.95"/>
  <g>
    <g>
      <polygon class="st0" points="368.14 239.29 283.24 248.84 282.87 226.6 368.61 213.55 368.14 239.29"/>
      <polygon class="st0" points="369.13 162.39 282.07 177.53 282.14 153.2 369.07 145.5 369.13 162.39"/>
      <polygon class="st0" points="366.11 308.81 284.47 321.36 283.86 297.25 366.87 289.9 366.11 308.81"/>
      <polygon class="st0" points="363.56 382.7 286.61 388.88 286.04 368.95 364.43 358.35 363.56 382.7"/>
      <path class="st0" d="M258.28,422.72l-2.5.46c-.43.08-.99-1.38-.56-1.45l2.13-.34c15.41-2.47,30.21-5.01,46.22-4.87-14.72,4.09-29.51,4.89-45.29,6.21Z"/>
      <path class="st0" d="M256.09,199.55c-9.41,3.1-19.17,5.59-30.03,4.32,9.41-3.14,18.84-5.11,30.03-4.32Z"/>
      <path class="st0" d="M257.99,479.45c-2.31-7.77-2.76-16.12.31-23.66,2.38,8.14,2.59,15.46-.31,23.66Z"/>
      <path class="st0" d="M340.16,116.89c-6.24,3.73-13.95,4.01-21.23,2.84,6.96-2.97,13.24-3.99,21.23-2.84Z"/>
      <path class="st0" d="M334.14,342.63c-6.48,2.49-13.35,3.85-21.08,2.24,6.38-2.73,12.96-3.95,21.08-2.24Z"/>
      <path class="st0" d="M353.14,259.63c-6.42,2.64-13.35,3.85-21.1,2.25,6.43-2.66,12.98-3.82,21.1-2.25Z"/>
      <path class="st0" d="M320.58,198.73c-6.42,3.2-12.63,3.95-19.59,3.01,6.14-2.7,12.75-3.57,19.59-3.01Z"/>
      <path class="st0" d="M307.14,275.72c-5.97,2.32-12.4,2.93-18.94,2.14,6.1-2.48,11.68-3.31,18.94-2.14Z"/>
      <path class="st0" d="M297.31,132.59c-4.73,2.93-10.5,3.18-16.31,2.02,4.87-3.08,9.77-3.71,16.31-2.02Z"/>
      <path class="st0" d="M344.17,402.7c-4.91,2.54-10.45,3.21-16.6,1.69,5.47-2.2,10.14-2.63,16.6-1.69Z"/>
      <path d="M504.58,644.76c-9.61,5.98-18.48,12.14-29.01,16.41-19.67-11.3-41.83-13.31-62.97-5.65l-23.71,10.37c-28.28,14.43-59,20.2-90.65,18.88-20.56-.86-38.52-6.21-57.17-14.02-26.5-11.11-55.64-10.44-82.09.72-15.73-1.39-28.58-10.47-37.68-23.47l-44.64,7.5c11.95-9.6,21.03-19.44,25.08-33.91,7.35-26.31-2.06-54.4-23.81-70.93-9.58-7.28-20.48-10.46-32.66-10.88-.78-4.9,2.71-12.72,9.1-13.6l59.72-8.21-3.18-64.71c-2.9.51-7.63-.86-7.69-2.74l-.42-12.54c-.08-2.45,2.86-4.69,5.5-4.69l63.97.05c2.46,0,5.15,2.44,5.1,4.75l-.29,12.36c-.05,2.08-5.2,3.23-7.81,2.85l-2.14,58.16,58.98-7.7,1.39-60.86-18.37,1.29c-2.3.16-4.91-2.41-4.97-4.76l-.5-20.25,38.6-6.7c-13.67-1.79-25.71-.59-38.81-.87l-.67-11.7c-.1-1.74,2.51-4.44,4.32-4.59l21.97-1.87.13-16.26-25.22,3.88c-3.38.52-6.13-1.4-6.43-4.93l-1.52-18.06,30.47-7.56-31.09,1.1-1.88-11.77c-.25-1.54,1.74-4.6,3.5-4.87l33.32-5.17.66-27.58-8.05.91c-2.22.25-5.15-1.54-5.54-3.95l-5.87-36.23c-.51-3.16,1.35-6.27,4.72-6.68l15.77-1.88.39-19.27-40.39,6.98c-1.7.29-5.49-1.13-5.71-2.7l-2.17-15.36,31.55-9.42-33.17-.48-2.37-14.08c-.37-2.22,1.76-5.39,4.11-5.8l48.99-8.36.44-27.85-19.61,1.93c-2.76.27-5.4-1.91-5.8-4.68l-5.12-35.11c-.42-2.89,2.31-5.57,5.01-5.85l25.22-2.56-.39-39.64c.49-1.21,1.9-2.68,3.03-3.17l40.32.93c1.79-.04,5.89,1.46,5.88,3.25l-.2,33.14,87.23-10.3-.2-42.89-11.95.02c.58-16.5,13.27-25.5,29.95-27.62-5.04-6.97-5.6-15.5-.86-22.31,1-1.44,3.95-3.23,5.49-3.13s4.27,1.93,5.3,3.43c4.85,7.03,3.79,15.72-1.11,22.41,15.92.56,29.19,10.64,30.52,26.9l-11.93.19,1.49,37.86,26.49-3.04c1.82-.21,5.22,2.48,5.25,4.19l.25,15.53-29.07,6.31,29.46,1.9,1.1,18.77c.14,2.3-2.03,5.23-4.41,5.39l-27.48,1.85.42,12.45,51.29-9.01c2.64-.46,5.52,1.68,5.64,4.1l1.1,21.46-52.27,10.34-.57.91,53.14-5.95,1.24,19.54c.09,1.37-2.05,4.09-3.58,4.29l-54.71,7.22.71,26.58,37.43-4.12c3.03-.33,5.59,1.61,5.78,4.64l1,15.97-34.64,9.43c12.13,1.67,22.79.48,35.3.67l1.3,17.09c.23,3.09-1.88,5.44-4.83,5.66l-40.09,2.97.18,14.65,10.89-1.57c3.64-.52,6.45,1.62,6.69,5.22l1.47,21.75-33.36,5.94,33.69-.89,1.34,14.38c.23,2.44-1.49,5.21-4.07,5.46l-15.61,1.49.55,25.35,30.34-2.44c2.16-.17,5.13,2.33,5.35,4.41l4.78,43.66c.23,2.09-2.16,4.76-4.26,4.87l-35.12,1.86.72,46.95c13.1-1.03,25.95-4.42,39.46-4.32,14.88.11,29.18,3.27,43.69,4.56l-3.87-87.26c-3.34.69-8.21-.72-8.27-2.92l-.32-12.96c-.05-1.91,3.65-3.98,5.68-3.98h64.15c2,0,5.13,2.09,5.11,3.71l-.14,12.76c-.03,2.54-4.88,3.95-8.27,3.57l-2.95,94.1,73.07,9.07c4.96.62,8.8,2.1,11.19,5.61,2.71,3.99,2.82,8.86.87,12.78l-119.42,18.03-194.82,30.97-46.02,8.94c2.29,1.2,4.64,1.58,6.99,1.28l103.13-13.09,191.34-31.29,60.69-11.99c22.57,9.29,38.12,26.9,42.63,50.18,3.92,20.22-1.05,40.15-14.53,55.54M604.02,629.1,340.16,116.89c-7.98-1.15-14.27-.13-21.23,2.84,7.27,1.16,14.99.89,21.23-2.84ZM297.31,132.59c-6.54-1.7-11.44-1.07-16.31,2.02,5.81,1.16,11.58.91,16.31-2.02ZM369.13,162.39l-.06-16.89-86.93,7.7-.07,24.33,87.06-15.14ZM320.58,198.73c-6.83-.56-13.45.31-19.59,3.01,6.96.94,13.17.19,19.59-3.01ZM256.09,199.55c-11.19-.79-20.63,1.18-30.03,4.32,10.86,1.27,20.63-1.22,30.03-4.32ZM368.14,239.29l.47-25.74-85.74,13.05.38,22.24,84.89-9.55ZM353.14,259.63c-8.13-1.57-14.67-.41-21.1,2.25,7.75,1.6,14.68.39,21.1-2.25ZM307.14,275.72c-7.26-1.17-12.84-.35-18.94,2.14,6.54.79,12.97.19,18.94-2.14ZM366.11,308.81l.76-18.9-83.01,7.35.62,24.11,81.64-12.55ZM388.17,331.8c-5.7-1.02-9.85-.84-14.11,1.87,5.2.77,9.92.17,14.11-1.87ZM334.14,342.63c-8.12-1.72-14.7-.5-21.08,2.24,7.73,1.62,14.6.25,21.08-2.24ZM363.56,382.7l.88-24.35-78.4,10.6.57,19.93,76.95-6.18ZM531.46,440.3c2.2-1.99,1.77-4.38,1.87-7.05.5-13.06,2.64-25.5-.78-38.43-1.65,5.78-2.2,11.65-2.01,17.36l.93,28.12ZM344.17,402.7c-6.46-.93-11.14-.51-16.6,1.69,6.15,1.52,11.69.84,16.6-1.69ZM545.54,433.13c2.88-8.31,2.78-17.39.07-26.24-2.6,8.83-2.82,16.93-.07,26.24ZM258.28,422.72c15.78-1.32,30.57-2.12,45.29-6.21-16.02-.14-30.81,2.4-46.22,4.87l-2.13.34c-.43.07.13,1.53.56,1.45l2.5-.46ZM359.56,485.95l2.04-52.53-73.7,4.83,1.58,56.97,70.08-9.26ZM391.41,467.73c3.09-9.25,3.02-18.51-.09-27.64-2.54,9.64-2.2,18.23.09,27.64ZM406.67,465.64c1.77-5.28,2.47-10.65-.34-16.26-2.39,5.52-2.24,10.72.34,16.26ZM257.99,479.45c2.9-8.21,2.69-15.52.31-23.66-3.06,7.54-2.62,15.89-.31,23.66ZM139.55,488.65c2.22-10.05,2.2-19.71-.28-30.19-2.4,10.28-2.74,19.92.28,30.19ZM152.77,490.52c2.12-5.84,2.53-12.13-.08-17.85-2.45,6.25-2.05,11.78.08,17.85ZM624.79,509.95c-32.94-10.39-66.24-16.11-100.46-20.79-34.89-4.77-68.84-7.6-104.19-6.63,35.91,4.29,71.36,9.18,107.48,15.35,32.58,4.42,63.68,10.26,97.17,12.08ZM580.56,517.98c-17.96-5.81-35.77-9.19-54.58-12.5-29.08-5.11-57.35-9.38-86.75-11.99-21-1.9-40.88-3.53-62.09-1.86l95.15,13.44,68.83,9.49c13.28,1.83,25.73,3.42,39.45,3.42ZM526.44,527.13c-5.83-2.43-11.42-3.89-18.08-5.28-52.18-10.88-104.58-17.99-157.93-20.58-13.12-.64-25.06-.88-37.25.39l100.96,12.88c37.69,4.81,74.08,10.58,112.3,12.59ZM457.64,536.09c-22.59-7.42-45.43-10.89-68.94-14.3l-64.49-7.67c-31.35-3.73-62.07-4.77-93.09-3.56l20.3,2.61,135.52,16.48c23.81,2.9,46.34,5.57,70.71,6.44ZM380.47,549.01c-16.16-4.71-31.9-8.62-48.81-11.17l-75.48-11.36c-32.33-3.81-64.04-6.89-96.28-5.75l76.25,10.72,100.98,13.93c14.72,2.03,28.34,3.56,43.34,3.63ZM264.92,553.01c-36.04-8.48-71.07-15.09-107.35-20.05-26.32-3.6-51.75-5.58-78.46-4.41l104.44,16.36c37.61,5.89,73.85,12.63,111.87,17.29-9.78-4.01-19.38-6.58-30.5-9.19ZM662.11,528.83c-6.94-1.18-12.8-.49-17.45,3.16,6.74,1.43,12.93.18,17.45-3.16ZM387.98,588.44c55.13-6.45,108.3-14.43,162.34-24.14,36.5-6.56,72.03-14.11,107.21-24.76l-73.63,11.37-160.57,26.48-95.15,16.22.57.74,59.22-5.89ZM559.11,543.53c-12.15-.17-22.83,1.71-33.14,5.38,11.89-.35,22.79-2.12,33.14-5.38ZM670.21,549.66c-8.09-1.01-14.35.12-21.27,3.28,7.38,1.39,14.81.05,21.27-3.28ZM191.66,574.48c25,23.01,26.19,60.31,5.13,87.13,11.58-6.42,17.66-19.12,20.12-31.73,4.82-24.71-4.75-50.26-24.62-65.47-23.83-18.24-56.49-11.78-72.86,13.34-9.79,15.01-12.03,34.62-6.21,51.79-3.07-23.26,3.89-45.04,22.61-58.73,17.14-12.54,39.74-11.12,55.82,3.67ZM601.17,566.56c-19.82,1.24-37.48,4.6-56.09,9.5,18.97-.95,38.22-3.89,56.09-9.5ZM666.11,571.47c-20,1.28-38.13,4.23-56.06,9.57,19.59-1.17,38.17-4.49,56.06-9.57ZM307.19,684.58c17.74-10.44,26.38-31.13,25.24-51.36-1.18-20.98-11.3-39.87-28.29-51.71-18.86-13.14-43.19-11.85-60.41,3.24-19.23,16.86-24.51,44.8-14.62,67.65-5.66-22.57.1-45.78,17.48-60.66,16.4-14.05,38.78-14.77,55.7-1.43,29.27,23.07,32.01,67.04,4.9,94.27ZM173.93,630.28c7.9-6.98,9.51-16.53,6.97-25.82-3.62-13.23-17.8-23.57-29.1-16.66,14.74,1.87,25.23,13.37,24.77,28.47-.15,4.98-1.4,9.67-2.64,14.01ZM428.51,593.77c-25.01,2.22-49.87,6.36-74.5,12.26,25.56-1.19,49.61-5.87,74.5-12.26ZM613.25,599.7c-7.17-.93-12.58-.1-18.34,2.97,6.5,1.39,13.11.58,18.34-2.97ZM524.12,602.44c-17.62.43-33.55,3.53-49.22,8.46,17.41-.77,33.64-3.79,49.22-8.46ZM263.49,656.23c-11.26-13.07-16.31-27.41-10.71-43.02-14.75,6.91-6.64,39.21,10.71,43.02ZM273.34,639.58l-5.51-24.72c-4.57,6.36-.11,18.04,5.51,24.72ZM402.47,626.68c-16.38.97-32.51,3.6-48.42,8.27,16.74-.06,32.41-2.93,48.42-8.27ZM462.84,630.56c-7.91-.72-12.58-.05-18.4,2.84,7.04,2.14,13.05-.2,18.4-2.84Z"/>
      <g>
        <path class="st0" d="M391.41,467.73c-2.29-9.4-2.63-18-.09-27.64,3.11,9.13,3.17,18.39.09,27.64Z"/>
        <path class="st0" d="M406.67,465.64c-2.58-5.54-2.73-10.74-.34-16.26,2.81,5.61,2.11,10.98.34,16.26Z"/>
        <path class="st0" d="M388.17,331.8c-4.19,2.04-8.91,2.64-14.11,1.87,4.26-2.71,8.41-2.89,14.11-1.87Z"/>
      </g>
    </g>
    <g>
      <path class="st0" d="M139.55,488.65c-3.02-10.28-2.68-19.92-.28-30.19,2.48,10.48,2.5,20.14.28,30.19Z"/>
      <g>
        <path class="st0" d="M531.46,440.3l-.93-28.12c-.19-5.72.37-11.58,2.01-17.36,3.42,12.93,1.28,25.37.78,38.43-.1,2.67.33,5.05-1.87,7.05Z"/>
        <path class="st0" d="M545.54,433.13c-2.75-9.31-2.53-17.41.07-26.24,2.71,8.85,2.81,17.93-.07,26.24Z"/>
      </g>
      <path class="st0" d="M152.77,490.52c-2.13-6.07-2.52-11.6-.08-17.85,2.6,5.72,2.2,12.01.08,17.85Z"/>
      <g>
        <path class="st0" d="M387.98,588.44l-59.22,5.89-.57-.74,95.15-16.22,160.57-26.48,73.63-11.37c-35.18,10.64-70.71,18.19-107.21,24.76-54.04,9.71-107.21,17.69-162.34,24.14Z"/>
        <path class="st0" d="M307.19,684.58c27.11-27.23,24.37-71.2-4.9-94.27-16.92-13.34-39.3-12.61-55.7,1.43-17.37,14.88-23.13,38.1-17.48,60.66-9.89-22.85-4.62-50.8,14.62-67.65,17.22-15.09,41.54-16.38,60.41-3.24,16.99,11.84,27.11,30.73,28.29,51.71,1.14,20.23-7.49,40.92-25.24,51.36Z"/>
        <path class="st0" d="M191.66,574.48c-16.08-14.8-38.68-16.21-55.82-3.67-18.72,13.7-25.68,35.48-22.61,58.73-5.82-17.16-3.58-36.77,6.21-51.79,16.37-25.12,49.03-31.58,72.86-13.34,19.87,15.21,29.44,40.76,24.62,65.47-2.46,12.62-8.54,25.32-20.12,31.73,21.06-26.83,19.87-64.12-5.13-87.13Z"/>
        <path class="st0" d="M457.64,536.09c-24.37-.86-46.89-3.54-70.71-6.44l-135.52-16.48-20.3-2.61c31.03-1.21,61.74-.17,93.09,3.56l64.49,7.67c23.5,3.41,46.35,6.89,68.94,14.3Z"/>
        <path class="st0" d="M380.47,549.01c-14.99-.07-28.61-1.6-43.34-3.63l-100.98-13.93-76.25-10.72c32.24-1.14,63.94,1.94,96.28,5.75l75.48,11.36c16.91,2.55,32.66,6.46,48.81,11.17Z"/>
        <path class="st0" d="M264.92,553.01c11.12,2.62,20.72,5.18,30.5,9.19-38.03-4.66-74.26-11.4-111.87-17.29l-104.44-16.36c26.71-1.17,52.14.81,78.46,4.41,36.28,4.96,71.31,11.57,107.35,20.05Z"/>
        <path class="st0" d="M526.44,527.13c-38.22-2.01-74.61-7.79-112.3-12.59l-100.96-12.88c12.19-1.27,24.13-1.03,37.25-.39,53.35,2.59,105.75,9.7,157.93,20.58,6.65,1.39,12.25,2.85,18.08,5.28Z"/>
        <path class="st0" d="M580.56,517.98c-13.72,0-26.17-1.59-39.45-3.42l-68.83-9.49-95.15-13.44c21.2-1.67,41.09-.03,62.09,1.86,29.4,2.61,57.67,6.88,86.75,11.99,18.81,3.3,36.63,6.69,54.58,12.5Z"/>
        <path class="st0" d="M624.79,509.95c-33.49-1.81-64.58-7.65-97.17-12.08-36.12-6.17-71.58-11.06-107.48-15.35,35.35-.97,69.31,1.87,104.19,6.63,34.21,4.68,67.52,10.4,100.46,20.79Z"/>
        <path class="st0" d="M173.93,630.28c1.24-4.34,2.49-9.03,2.64-14.01.46-15.11-10.02-26.6-24.77-28.47,11.3-6.92,25.48,3.43,29.1,16.66,2.54,9.29.93,18.84-6.97,25.82Z"/>
        <path class="st0" d="M263.49,656.23c-17.35-3.81-25.45-36.11-10.71-43.02-5.61,15.61-.56,29.95,10.71,43.02Z"/>
        <path class="st0" d="M428.51,593.77c-24.89,6.39-48.94,11.08-74.5,12.26,24.63-5.91,49.5-10.04,74.5-12.26Z"/>
        <path class="st0" d="M601.17,566.56c-17.87,5.61-37.13,8.56-56.09,9.5,18.61-4.91,36.27-8.26,56.09-9.5Z"/>
        <path class="st0" d="M666.11,571.47c-17.88,5.08-36.47,8.4-56.06,9.57,17.92-5.35,36.06-8.29,56.06-9.57Z"/>
        <path class="st0" d="M524.12,602.44c-15.58,4.67-31.81,7.7-49.22,8.46,15.67-4.94,31.6-8.03,49.22-8.46Z"/>
        <path class="st0" d="M402.47,626.68c-16.01,5.34-31.67,8.21-48.42,8.27,15.9-4.67,32.04-7.3,48.42-8.27Z"/>
        <path class="st0" d="M273.34,639.58c-5.61-6.68-10.07-18.36-5.51-24.72l5.51,24.72Z"/>
        <path class="st0" d="M559.11,543.53c-10.35,3.26-21.25,5.03-33.14,5.38,10.32-3.67,21-5.55,33.14-5.38Z"/>
        <path class="st0" d="M670.21,549.66c-6.45,3.33-13.89,4.67-21.27,3.28,6.92-3.16,13.18-4.29,21.27-3.28Z"/>
        <path class="st0" d="M613.25,599.7c-5.23,3.55-11.84,4.36-18.34,2.97,5.76-3.07,11.17-3.9,18.34-2.97Z"/>
        <path class="st0" d="M662.11,528.83c-4.52,3.34-10.71,4.58-17.45,3.16,4.64-3.65,10.51-4.33,17.45-3.16Z"/>
        <path class="st0" d="M462.84,630.56c-5.35,2.64-11.36,4.98-18.4,2.84,5.82-2.89,10.49-3.56,18.4-2.84Z"/>
        <path class="st0" d="M34.68,591.27c-2.7,6.86-2.24,13.86-1.73,21.33-8.86-11.38-6.14-28.54,5.62-36.93,6.46-4.61,15.06-5.52,21.18-.68-11.56.19-20.85,5.57-25.06,16.28Z"/>
        <path d="M79.03,649.58c-15.45,12.73-37.33,12.35-53.59,1.38-29.45-19.87-34.05-62.54-10.02-88.33,15.1-16.21,37.83-18.9,56.09-6.47,33.64,22.89,32.8,72.59,7.53,93.42ZM34.68,591.27c4.21-10.71,13.5-16.08,25.06-16.28-6.12-4.83-14.72-3.92-21.18.68-11.75,8.38-14.47,25.54-5.62,36.93-.51-7.47-.97-14.47,1.73-21.33Z"/>
      </g>
    </g>
  </g>
</svg>