<?xml version="1.0" encoding="UTF-8"?>
<svg id="Layer_1" xmlns="http://www.w3.org/2000/svg" version="1.1" viewBox="0 0 930.3 705.91">
  <!-- Generator: Adobe Illustrator 30.6.0, SVG Export Plug-In . SVG Version: 2.1.4 Build 109)  -->
  <defs>
    <style>
      .st0 {
        fill: #fff;
      }
    </style>
  </defs>
  <g>
    <path class="st0" d="M235.52,408.56c22.96,5.98,44.29,12.83,67.05,21.11-5.45-18.31.08-36.13,14.24-47.76,15.47-12.7,31.96-15.17,39.95-33.91-14.82,2.52-27.64-3.22-36.54-14.09-10.85-13.26-11.74-30.73-4.8-46.92l-13.02,8.55c-17.51,9.5-38.39,5.84-51.66-9.08-8.36-9.41-12.26-21.41-10.71-34.43-23.07,1.28-44.96,5.56-66.57,13.6-60.35,23.39-100.42,72.05-114.34,135.64,51.06-9.67,101.86-8.26,153.54,2.49-13.98-24.39-22.87-52.42-20.35-79.69,7.98,31.27,22.75,57.91,43.21,84.49Z"/>
    <g>
      <path d="M741.64,621.68c54.85-4.97,111.57-26.86,150.6-66.59l-23.08,17.32c-30.59,20.64-64.86,33.63-101.49,39.34-66.99,10.44-131.53-2.39-195.07-24.05-37.38-12.74-72.65-28.22-108.65-44.35l-83.58-37.44c-29.11-11.7-57.87-21.58-88.58-28.5-77.76-17.52-159.93-7.61-230.01,30.82,58.24-21.28,118.76-30.51,180.14-23.7,34.44,3.75,66.92,12.05,99.56,23.21,26.8,9.16,51.85,19.82,77.79,31.31,41.62,18.45,82.7,36,125.61,51.24,64.72,22.99,127.8,37.62,196.75,31.38Z"/>
      <path d="M639.81,662.51c82.24,16.07,161.27,5.79,225.96-49.56,3.08-2.64,6.59-4.22,8.05-8.33-64.77,55.24-142.93,66.96-225.38,50.2-69.59-14.15-126.77-41.32-190.5-69.39l-68.75-30.28c-25.29-11.14-50.96-18.87-77.84-25.24-73.43-17.39-149.56-8.88-217.11,24.37l-30.87,16.92,1.31.7c76.23-36.05,158.81-46.14,241.16-27.35,33.05,7.54,64.46,18.01,95.63,31.3l84.07,35.86c47.54,20.28,103.89,40.95,154.29,50.8Z"/>
      <path d="M564.87,687.95c21.47,7.95,60.08,17.53,82.23,17.97-44.06-6.51-87.11-21.74-128.46-40.29l-90.42-40.55c-28.43-12.75-56.87-22.57-87.23-29.82-78.98-17.97-157.7-3.58-225.14,40.93,46.27-21.22,94.35-34.18,145.12-35.61,58.74-1.65,117.99,13.72,171.99,35.69l78.22,31.81,53.7,19.88Z"/>
    </g>
  </g>
  <g>
    <path d="M701.18,585c-57.77-.24-116.22-17.73-170.03-38.01-48.24-18.18-94.18-39.67-140.53-62.15-28.65-13.9-57.05-26.02-86.7-37.52-99.77-38.7-198.22-51.45-303.92-29.04,14.21-6.15,29.22-9.86,44.25-13.71,18.05-104.86,98.48-166.17,202.45-170.36l9.19-10.16c3.22-3.56,4.52-8.31,2.44-12.57-1.8-3.68-6.32-6.31-11.41-5.73s-9.92,3.14-13.92,6.41c-11.54,9.45-26.62,11.88-40.63,5.5-22.22-10.12-33.91-36.59-25.65-59.56,4.48-12.45,14.32-21.39,26.99-23.25s26.14,6.16,28.21,19.32c.65,4.15-.71,8.51-3.02,11.34-2.02,2.48-6.09,4.33-9.7,3.84-3.83-.52-6.7-3.71-7.13-6.74-.5-3.58,1.24-5.73,4.57-8.89-5.18-.07-8.58,4.36-8.52,9.54.11,9.99,9.02,16.45,18.82,14.62,6.71-1.25,12.06-6.13,14.6-11.09,8.18-16.01-7.61-24.77-.45-43.56l5.49-14.4c2.86-7.49,1.69-15.75-3.2-21.83-7.3-9.08-20.34-10.33-28.44-1.75,6.56-2.72,12.52-2.28,17.41,2.2,4.25,3.89,6.63,10.35,4.52,16.69-3.76,11.3-16.57,16.36-27.8,11.9-9.24-3.67-15.73-12.11-17.84-22.07-4.01-18.88,6.67-37.47,23.67-44.61,17.58-7.38,37.65-1.34,48.82,14.2,5.69,7.92,7.82,17.09,10.45,26.48l4.84,17.24c.85,3.01,5.49,5.13,8.12,4.5s5.18-3.71,5.96-6.39c3.66-12.55,14.02-19.81,27.1-18.23,18.21,2.2,31.31,16.54,33.22,35.39,3.58-13.85-.45-27.85-10.88-37.92-2.57-12.18,5.31-23.59,2.71-35.43-1.57-7.11-6.75-12.56-12.34-14.61-6.88-2.52-13.9-1.56-18.94,3.63,6.83-2.46,13.21-.62,17.36,4.32,4.13,4.92,5.28,11.99,2.02,18.04-5.55,10.33-18.32,13.5-28.73,8.04-8.27-4.34-13.72-12.06-15.65-21.46-3.4-16.53,4.4-33.26,19.68-41.49,23.62-12.73,53.64-3.12,66.34,20.53,3.25,6.06,4.81,12.87,5.44,19.56l2.19,23.02c1.01,10.63,11.2,17.65,21.38,15.46,5.41-1.16,10.57-1.29,16.01-.97,11.72.69,22.03-6.52,23.87-18.09,1.34-8.4-4.06-17.06-13.22-16.92,5.78,4.39,7.43,11.18,3.44,17.05-4.53,6.66-13.24,7.51-19.79,2.45-7.11-5.49-9.44-15.06-6.53-24.09,4.98-15.45,20.85-24.42,37.3-22.18,22.09,3.01,37.84,22.37,37.76,44.73-.05,13.05-4.72,24.14-12.3,35.3,9.71-1.41,16.88,2,22.53,8.68,7.28,8.61,20.12,10.88,29.04,4.28,7.18-5.31,9.39-14.61,4.22-21.45.31,6.9-3.63,11.93-9.32,13.73s-11.59-.5-15.1-5.51c-5.02-7.16-3.76-16.64,1.58-23.74,10.13-13.47,29.03-15.38,42.72-5.35,20.23,14.84,23.84,43.53,7.95,63.22-5.25,6.51-11.15,11.53-17.8,18.28,7.21.5,12.53,3.27,16,9.31,3.87,6.74,10.68,11.56,18.69,11.54,5.54-.01,10.35-2.98,12.61-7.2,2.4-4.48,3.06-9.27-.47-13.57.3,6.19-2.87,10.33-7.74,11.35s-9.5-1.96-11.17-7.38c-2.29-7.44,1.24-14.97,7.71-19.84,10.47-7.89,25.11-6.41,35.28,2.27,15.74,13.45,17.06,36.41,4.62,52.95-11.35,15.09-29.88,20.73-48.41,16.7-7.92-1.72-15.63-1.4-22.19,4.46l6.82,16.43c4.49-6.96,10.23-11.18,17.52-8.88,12.74,4.03,23.69,23.09,30.28,35.73-13.36-7.25-27.77-6.35-37.56,3l6.58,18.51c73.84,16.22,141.83,52.99,196.31,106,41.55,40.49,73.18,88.16,98.96,140.22,30.94-11.1,56.95-29.85,80.13-52.99-22.76,30.44-54.15,53.18-89.19,68.01-58.46,24.73-126.22,27-188,12.81-9.4,6.66-18.99,10.6-30.63,14.33,26.14,8.17,52.19,13.65,78.7,17.59ZM485.43,289c-1.86,25.35-17.17,56.6-43.34,51.96-9.33-1.65-19.05-8.48-22.15-18.93,5.79,7,13.1,11.86,21.25,12.7,8.96.93,17.96-1.64,23.89-8.59l6.94-8.14c-12.31,6.9-26.08,5.09-36.55-4.43-12.52-11.39-16.33-28.72-12.53-45.25-6.29-3-13.69-4.79-20.2-1.33-5.55,2.95-8.68,8.47-12.64,13.67.79-17.62,4.28-43.33,17.3-51.98,5.2-1.09,9.02-.31,13.54,1.57l21.74,16.36c15.07,11.34,30.27,26.71,49.53,29.48l-5.26-23.41,13.63,21.92c12.99-4.71,22.7-21.68,30.64-34.21-7.69-18.9-14.87-36.69-23.46-54.85-10.62-22.44-32.81-62.12-57.6-62.54-7.18-.12-12,5.22-11.65,12.35s3.68,12.49,6.63,19.36c-19.66-18.02-46.21-35.27-72.2-29.76-19.31,4.1-31.11,22.27-25.91,41.3l5.53,14.53c8.47,16.85,14.99,33.59,18.68,52.32l24.97,126.94,15.93,90.87c10.38-30.64,27.42-61.41,58.41-73.35-1.59-6.57-2.11-12.54-.72-18.47s7.01-9.4,13.17-7.74c7.86,2.12,14.2,7.4,19.42,13.95-5.61-2.28-9.75-4.31-15.42-5.34-2.53-.46-7.12,2.08-7.45,4.46-.61,4.45-.44,8,.08,12.61l87.5,33.17-58.56-103.26-10.47-18.34-12.66.41ZM321.63,175.3c-.35-13.34-7.96-26.29-20.63-31.88-8.86-3.9-18.49-3.62-26.76,1.99-6.42,4.35-11.99,12.56-12.08,22.29,6.72-13.94,21.54-21.11,36.99-16.07,11.34,3.7,18.59,12.51,22.48,23.66ZM330.28,208.55c11.33,1.07,20.96,8.08,25.57,18.74-1.12-9.35-6.12-17.83-13.91-22.92-7.46-4.87-16.98-6.07-25.48-1.76-6.4,3.24-12.81,9.83-14.07,20.35,6.33-9.24,16.05-15.51,27.9-14.4ZM302.57,429.67c-5.45-18.31.08-36.13,14.24-47.76,15.47-12.7,31.96-15.17,39.95-33.91-14.82,2.52-27.64-3.22-36.54-14.09-10.85-13.26-11.74-30.73-4.8-46.92l-13.02,8.55c-17.51,9.5-38.39,5.84-51.66-9.08-8.36-9.41-12.26-21.41-10.71-34.43-23.07,1.28-44.96,5.56-66.57,13.6-60.35,23.39-100.42,72.05-114.34,135.64,51.06-9.67,101.86-8.26,153.54,2.49-13.98-24.39-22.87-52.42-20.35-79.69,7.98,31.27,22.75,57.91,43.21,84.49,22.96,5.98,44.29,12.83,67.05,21.11ZM507.46,286.14l13.03,23.37c17.19-5.16,21.84-22.84,16.8-40.38l-4.5,3.05c2.01,3.03,3.65,5.64,3.92,8.51.28,3-2.11,6.91-5.14,7.92-5.5,1.83-10.27-1.42-12.57-7.66l-11.54,5.19ZM477.22,288.31c-.37,5.27-2.78,10.11-8.3,10.97-3.58.56-7.34-2.03-8.78-4.72-1.92-3.57-1.3-7.72,1.05-11.38l-35.95-14.26c-1.97,13.74,2.44,29.28,13.66,38.19,6.32,5.02,13.85,7.34,21.91,5.64,6.37-1.34,13.72-5.92,16.67-13.18l4.5-11.09-4.76-.17ZM533.01,332.62l22.15,43.63,23.3,7.87-32.77-101.39c.76,14.94-5.21,29.62-20.3,35.07l3.98,8.11c7.36,1.17,13.82-1.09,18.74-7.03-.98,7.95-7.42,12.81-15.11,13.74ZM361.98,330.3l1.84-34.54c-8.66-9.22-19.83-13.27-31.88-11.93-12.03,13.58-9.96,34.35,5.42,44.44,7.86,5.15,16.7,5.54,24.62,2.03ZM616.96,426.83c17.12,1.83,33.53,8.01,46.13,20.2,26.27,25.23,26.12,61.69,4.21,91.89,55.16,12.77,112.42,10.32,166.38-7.37-39.19-78.56-88.77-142.37-162.7-189.24-34.77-21.65-71.46-38.48-111.28-50.63l16.97,49.98c8.64.96,16.74,2.89,24.77,6.07,9.84,5.11,18.58,11.43,23.9,22.01-10.62-7.17-22.1-9.14-34.49-5.84,12.49,1.14,24.36,4.16,34.34,12.13,9.55,7.63,12.36,19.87,7.65,31.28,12.43,9.42,24.81,18.48,33.33,32.88-14.74-10.9-30.89-17.63-49.22-13.35ZM495.21,416.53c-25.68,6.6-40.55,27.63-50.22,52.16,24.54-7.54,48.59-10.65,74.12-9.86,31,.97,60.54,6.92,90.23,17.52l-11.8-38.96c-28.69-16.8-61.76-25.38-95.57-22.47l-.18,17.36c28.5-8.51,62.8-3.72,79.64,20.71-25.88-15.14-54.74-18.75-85.86-12.79l-.37-23.68ZM663.49,501.96c-1.2-20.45-18.27-32.56-37.75-34.33,22.71,11.03,31.08,26.05,36.97,49.72l.78-15.4ZM544.95,503.79c-.31-9.56-5.87-18.64-14.67-23.64,10.7,14.47,10.54,32.55,1.97,49.19,8.25-5.76,13.02-15.47,12.7-25.55ZM633.58,515.58c-3.33-13.25-14.28-22.24-27.8-25.23,17.75,12.02,25.95,31.57,23.81,53.77,4.9-8.19,6.45-18.73,3.99-28.53ZM588.05,544.7c7.88-8.53,10.46-20.18,7.25-31.91-2.47-9.04-10.34-18.37-20.08-21.36,13.91,15.53,17.33,33.75,12.83,53.27Z"/>
    <path class="st0" d="M508.56,306.92l58.56,103.26-87.5-33.17c-.52-4.61-.69-8.16-.08-12.61.33-2.38,4.92-4.92,7.45-4.46,5.67,1.03,9.81,3.07,15.42,5.34-5.22-6.55-11.56-11.83-19.42-13.95-6.15-1.66-11.73,1.62-13.17,7.74s-.87,11.9.72,18.47c-30.99,11.94-48.03,42.71-58.41,73.35l-15.93-90.87-24.97-126.94c-3.68-18.73-10.2-35.47-18.68-52.32l-5.53-14.53c-5.2-19.03,6.6-37.2,25.91-41.3,25.99-5.51,52.54,11.74,72.2,29.76-2.95-6.87-6.29-12.57-6.63-19.36-.36-7.13,4.47-12.48,11.65-12.35,24.79.43,46.98,40.1,57.6,62.54,8.59,18.16,15.77,35.95,23.46,54.85-7.94,12.54-17.65,29.5-30.64,34.21l-13.63-21.92,5.26,23.41c-19.25-2.77-34.46-18.13-49.53-29.48l-21.74-16.36c-4.52-1.88-8.34-2.66-13.54-1.57-13.02,8.65-16.51,34.36-17.3,51.98,3.96-5.19,7.09-10.71,12.64-13.67,6.5-3.46,13.91-1.67,20.2,1.33-3.8,16.53,0,33.86,12.53,45.25,10.48,9.53,24.24,11.33,36.55,4.43l-6.94,8.14c-5.93,6.95-14.93,9.51-23.89,8.59-8.15-.84-15.46-5.7-21.25-12.7,3.1,10.45,12.82,17.27,22.15,18.93,26.16,4.63,41.48-26.61,43.34-51.96l12.66-.41,10.47,18.34ZM501.24,198.56c-16.06,9.94-30.4,5.98-47.2-2.31s-36.63-18.08-54.95-11.03c-3.24,1.24-6.19,3.33-8.19,5.98,14.06-7.56,29.03-5.06,43.18,1.97l21.08,10.47c15.4,7.65,35.88,9.01,46.08-5.06ZM511.23,223.48c-37.07,22.7-56.29-14.8-92.33-17.81-7.75-.65-15.78.77-21,6.6,19.26-8.75,35.35,1.27,52.47,11.67,20.02,13.78,44.68,20.65,60.85-.45Z"/>
    <path class="st0" d="M666.17,440.18c-14.74-10.9-30.89-17.63-49.22-13.35,17.12,1.83,33.53,8.01,46.13,20.2,26.27,25.23,26.12,61.69,4.21,91.89,55.16,12.77,112.42,10.32,166.38-7.37-39.19-78.56-88.77-142.37-162.7-189.24-34.77-21.65-71.46-38.48-111.28-50.63l16.97,49.98c8.64.96,16.74,2.89,24.77,6.07,9.84,5.11,18.58,11.43,23.9,22.01-10.62-7.17-22.1-9.14-34.49-5.84,12.49,1.14,24.36,4.16,34.34,12.13,9.55,7.63,12.36,19.87,7.65,31.28,12.43,9.42,24.81,18.48,33.33,32.88Z"/>
    <path class="st0" d="M495.58,440.2l-.37-23.68c-25.68,6.6-40.55,27.63-50.22,52.16,24.54-7.54,48.59-10.65,74.12-9.86,31,.97,60.54,6.92,90.23,17.52l-11.8-38.96c-28.69-16.8-61.76-25.38-95.57-22.47l-.18,17.36c28.5-8.51,62.8-3.72,79.64,20.71-25.88-15.14-54.74-18.75-85.86-12.79Z"/>
    <path class="st0" d="M548.11,318.88c-.98,7.95-7.42,12.81-15.11,13.74l22.15,43.63,23.3,7.87-32.77-101.39c.76,14.94-5.21,29.62-20.3,35.07l3.98,8.11c7.36,1.17,13.82-1.09,18.74-7.03Z"/>
    <path class="st0" d="M337.36,328.27c7.86,5.15,16.7,5.54,24.62,2.03l1.84-34.54c-8.66-9.22-19.83-13.27-31.88-11.93-12.03,13.58-9.96,34.35,5.42,44.44Z"/>
    <path class="st0" d="M481.98,288.48l-4.76-.17c-.37,5.27-2.78,10.11-8.3,10.97-3.58.56-7.34-2.03-8.78-4.72-1.92-3.57-1.3-7.72,1.05-11.38l-35.95-14.26c-1.97,13.74,2.44,29.28,13.66,38.19,6.32,5.02,13.85,7.34,21.91,5.64,6.37-1.34,13.72-5.92,16.67-13.18l4.5-11.09Z"/>
    <path class="st0" d="M519,280.95l-11.54,5.19,13.03,23.37c17.19-5.16,21.84-22.84,16.8-40.38l-4.5,3.05c2.01,3.03,3.65,5.64,3.92,8.51.28,3-2.11,6.91-5.14,7.92-5.5,1.83-10.27-1.42-12.57-7.66Z"/>
    <path class="st0" d="M299.15,151.64c11.34,3.7,18.59,12.51,22.48,23.66-.35-13.34-7.96-26.29-20.63-31.88-8.86-3.9-18.49-3.62-26.76,1.99-6.42,4.35-11.99,12.56-12.08,22.29,6.72-13.94,21.54-21.11,36.99-16.07Z"/>
    <path class="st0" d="M302.38,222.95c6.33-9.24,16.05-15.51,27.9-14.4s20.96,8.08,25.57,18.74c-1.12-9.35-6.12-17.83-13.91-22.92-7.46-4.87-16.98-6.07-25.48-1.76-6.4,3.24-12.81,9.83-14.07,20.35Z"/>
    <path class="st0" d="M662.71,517.36l.78-15.4c-1.2-20.45-18.27-32.56-37.75-34.33,22.71,11.03,31.08,26.05,36.97,49.72Z"/>
    <path class="st0" d="M629.59,544.12c4.9-8.19,6.45-18.73,3.99-28.53-3.33-13.25-14.28-22.24-27.8-25.23,17.75,12.02,25.95,31.57,23.81,53.77Z"/>
    <path class="st0" d="M575.23,491.43c13.91,15.53,17.33,33.75,12.83,53.27,7.88-8.53,10.46-20.18,7.25-31.91-2.47-9.04-10.34-18.37-20.08-21.36Z"/>
    <path class="st0" d="M532.25,529.34c8.25-5.76,13.02-15.47,12.7-25.55-.31-9.56-5.87-18.64-14.67-23.64,10.7,14.47,10.54,32.55,1.97,49.19Z"/>
    <path d="M450.37,223.93c20.02,13.78,44.68,20.65,60.85-.45-37.07,22.7-56.29-14.8-92.33-17.81-7.75-.65-15.78.77-21,6.6,19.26-8.75,35.35,1.27,52.47,11.67Z"/>
    <path d="M455.16,203.62c15.4,7.65,35.88,9.01,46.08-5.06-16.06,9.94-30.4,5.98-47.2-2.31s-36.63-18.08-54.95-11.03c-3.24,1.24-6.19,3.33-8.19,5.98,14.06-7.56,29.03-5.06,43.18,1.97l21.08,10.47Z"/>
  </g>
</svg>